PathFileType	4	(X/Y/Z)	C:\Users\86182\Documents\cortex\Trimmed_M3_H5.trc
DataRate	CameraRate	NumFrames	NumMarkers	Units	OrigDataRate	OrigDataStartFrame	OrigNumFrames
100.00	100.00	       84	2	mm	100.00	541	       901
Frame#	Time	gripper			box			
		X1	Y1	Z1	X2	Y2	Z2	

541	5.400	267.71066	173.16740	292.08755	273.39178	168.09734	148.21588	
542	5.410	267.71777	173.16939	292.08630	273.37891	168.10840	148.22151	
543	5.420	267.72357	173.16954	292.08435	273.32553	168.14198	148.25090	
544	5.430	267.72742	173.16786	292.08179	273.21237	168.20840	148.31525	
545	5.440	267.72934	173.16490	292.07895	273.01889	168.31909	148.42633	
546	5.450	267.73004	173.16127	292.07605	272.72983	168.48274	148.59274	
547	5.460	267.72986	173.15750	292.07343	272.34573	168.69928	148.81384	
548	5.470	267.72882	173.15417	292.07166	271.89890	168.95078	149.07091	
549	5.480	267.72687	173.15178	292.07117	271.47299	169.19014	149.31595	
550	5.490	267.72424	173.15054	292.07208	271.20227	169.34135	149.47244	
551	5.500	267.72144	173.15054	292.07385	271.20288	169.33838	149.47423	
552	5.510	267.71902	173.15169	292.07593	271.47577	169.18071	149.32062	
553	5.520	267.71756	173.15355	292.07764	271.90665	168.93359	149.07643	
554	5.530	267.71750	173.15564	292.07840	272.36252	168.67307	148.81702	
555	5.540	267.71878	173.15756	292.07813	272.75937	168.44736	148.59000	
556	5.550	267.72107	173.15907	292.07678	273.06216	168.27670	148.41530	
557	5.560	267.72400	173.16002	292.07458	273.26453	168.16438	148.29697	
558	5.570	267.72708	173.16052	292.07190	273.37271	168.10591	148.23225	
559	5.580	267.72983	173.16077	292.06949	273.39505	168.09564	148.21724	
560	5.590	267.73154	173.16077	292.06787	273.33594	168.13043	148.24986	
561	5.600	267.73172	173.16042	292.06735	273.19470	168.21048	148.33060	
562	5.610	267.73050	173.15961	292.06793	272.96875	168.33743	148.46068	
563	5.620	267.72849	173.15826	292.06937	272.66110	168.51009	148.63786	
564	5.630	267.72626	173.15633	292.07129	272.29233	168.71736	148.84988	
565	5.640	267.72400	173.15390	292.07324	271.91605	168.92928	149.06575	
566	5.650	267.72174	173.15125	292.07477	271.61505	169.09897	149.23816	
567	5.660	267.72003	173.14853	292.07523	271.45401	169.18965	149.33025	
568	5.670	267.71964	173.14583	292.07397	271.45035	169.19147	149.33231	
569	5.680	267.72116	173.14331	292.07111	271.60321	169.10480	149.24492	
570	5.690	267.72437	173.14151	292.06738	271.89386	168.94041	149.07869	
571	5.700	267.72827	173.14084	292.06378	272.25653	168.73587	148.87102	
572	5.710	267.73145	173.14117	292.06104	272.60812	168.53833	148.66916	
573	5.720	267.73257	173.14180	292.05927	272.89642	168.37717	148.50307	
574	5.730	267.73105	173.14209	292.05850	273.10446	168.26152	148.38268	
575	5.740	267.72702	173.14192	292.05887	273.23657	168.18849	148.30571	
576	5.750	267.72134	173.14169	292.06052	273.30798	168.14920	148.26378	
577	5.760	267.71512	173.14209	292.06357	273.33740	168.13287	148.24644	
578	5.770	267.70908	173.14355	292.06796	273.34210	168.12968	148.24403	
579	5.780	267.70352	173.14606	292.07318	273.33566	168.13185	148.24892	
580	5.790	267.69873	173.14882	292.07819	273.32739	168.13423	148.25577	
581	5.800	267.69522	173.15082	292.08163	273.32254	168.13423	148.26129	
582	5.810	267.69394	173.15132	292.08231	273.32236	168.13184	148.26414	
583	5.820	267.69571	173.15005	292.07965	273.32397	168.12936	148.26517	
584	5.830	267.70062	173.14713	292.07401	273.32092	168.13100	148.26741	
585	5.840	267.70789	173.14301	292.06631	273.30450	168.14165	148.27573	
586	5.850	267.71622	173.13855	292.05804	273.26453	168.16661	148.29639	
587	5.860	267.72433	173.13477	292.05066	273.18997	168.21156	148.33635	
588	5.870	267.73114	173.13243	292.04532	273.07071	168.28172	148.40198	
589	5.880	267.73587	173.13202	292.04279	272.90158	168.37953	148.49670	
590	5.890	267.73804	173.13361	292.04333	272.68869	168.50111	148.61745	
591	5.900	267.73767	173.13681	292.04657	272.45764	168.63155	148.74980	
592	5.910	267.73520	173.14078	292.05176	272.26425	168.73891	148.86192	
593	5.920	267.73117	173.14449	292.05768	272.18439	168.78047	148.91017	
594	5.930	267.72598	173.14716	292.06326	272.25726	168.73488	148.87141	
595	5.940	267.72015	173.14833	292.06747	272.44528	168.62457	148.76643	
596	5.950	267.71457	173.14813	292.06989	272.67361	168.49283	148.63753	
597	5.960	267.71014	173.14714	292.07086	272.88623	168.37181	148.51646	
598	5.970	267.70792	173.14633	292.07114	273.05658	168.27661	148.41835	
599	5.980	267.70859	173.14639	292.07117	273.17743	168.21072	148.34755	
600	5.990	267.71207	173.14726	292.07101	273.25308	168.17081	148.30220	
601	6.000	267.71719	173.14842	292.07040	273.29358	168.15042	148.27705	
602	6.010	267.72266	173.14932	292.06906	273.31104	168.14262	148.26538	
603	6.020	267.72763	173.14970	292.06696	273.31665	168.14133	148.26077	
604	6.030	267.73169	173.14952	292.06433	273.31851	168.14206	148.25862	
605	6.040	267.73456	173.14879	292.06152	273.32059	168.14211	148.25693	
606	6.050	267.73569	173.14769	292.05920	273.32324	168.14067	148.25575	
607	6.060	267.73456	173.14661	292.05789	273.32391	168.13898	148.25659	
608	6.070	267.73126	173.14595	292.05811	273.31747	168.14021	148.26202	
609	6.080	267.72656	173.14581	292.05975	273.29626	168.14952	148.27574	
610	6.090	267.72168	173.14600	292.06238	273.25061	168.17310	148.30269	
611	6.100	267.71750	173.14609	292.06531	273.17047	168.21713	148.34848	
612	6.110	267.71423	173.14589	292.06805	273.04730	168.28679	148.41808	
613	6.120	267.71155	173.14542	292.07019	272.87738	168.38434	148.51379	
614	6.130	267.70898	173.14476	292.07159	272.66751	168.50584	148.63188	
615	6.140	267.70679	173.14400	292.07208	272.44363	168.63620	148.75769	
616	6.150	267.70587	173.14322	292.07141	272.26184	168.74307	148.85948	
617	6.160	267.70676	173.14268	292.06961	272.19742	168.78313	148.89442	
618	6.170	267.70917	173.14261	292.06723	272.28848	168.73441	148.84099	
619	6.180	267.71216	173.14301	292.06503	272.49503	168.61932	148.72202	
620	6.190	267.71451	173.14366	292.06366	272.73886	168.48199	148.58228	
621	6.200	267.71542	173.14435	292.06332	272.95993	168.35635	148.45612	
622	6.210	267.71512	173.14496	292.06387	273.12683	168.26018	148.36147	
623	6.220	267.71439	173.14566	292.06506	273.22638	168.20108	148.30586	
624	6.230	267.71402	173.14674	292.06680	273.25491	168.18149	148.29123	
